<svg width="23" height="17" viewBox="0 0 23 17" fill="none" xmlns="http://www.w3.org/2000/svg">
<path d="M20.4267 8.41486H20.0401V3.93469C20.0379 2.01758 18.4894 0.463996 16.5787 0.461792H6.04444C4.13373 0.463996 2.58532 2.01758 2.58312 3.93469V8.41486H2.19649C1.11662 8.41612 0.241211 9.2943 0.240112 10.3778V13.0336C0.241211 14.1171 1.11662 14.9951 2.19649 14.9965H3.02044V15.5541C3.02106 16.0847 3.44975 16.5147 3.9787 16.5153H5.49258C6.02138 16.5147 6.45022 16.0847 6.45085 15.5541V14.9965H16.1725V15.5541C16.1731 16.0847 16.6016 16.5147 17.1306 16.5153H18.6449C19.1739 16.5147 19.6026 16.0847 19.6031 15.5541V14.9965H20.4272C21.507 14.9951 22.3824 14.1171 22.3835 13.0336V10.3778C22.3824 9.29414 21.5069 8.41596 20.4267 8.41486ZM3.48599 3.93469C3.48756 2.51776 4.63224 1.36957 6.04444 1.36768H16.5787C17.9909 1.36957 19.1355 2.51776 19.137 3.93469V8.41486H18.3081V6.84537C18.3073 6.21153 17.7954 5.69798 17.1637 5.69719H12.8331C12.2015 5.69798 11.6895 6.21169 11.6889 6.84537V8.41486H10.9343V6.84537C10.9335 6.21169 10.4217 5.69798 9.78993 5.69719H5.45963C4.8279 5.69798 4.3159 6.21153 4.31512 6.84537V8.41486H3.48599V3.93469ZM17.405 8.41486H12.5919V6.84537C12.5919 6.71171 12.6999 6.60339 12.8331 6.60324H17.1637C17.2969 6.60339 17.4049 6.71171 17.405 6.84537V8.41486ZM10.0314 8.41486H5.21799V6.84537C5.2183 6.71171 5.32626 6.60339 5.45963 6.60324H9.78993C9.92331 6.60339 10.0313 6.71171 10.0314 6.84537V8.41486ZM2.19649 9.32091H20.4267C21.0082 9.3217 21.4794 9.79448 21.48 10.3778V12.3642H1.14298V10.3778C1.14361 9.79448 1.61497 9.3217 2.19649 9.32091ZM5.54782 15.5538C5.54782 15.5844 5.52334 15.6091 5.4929 15.6091H3.97854C3.9481 15.6091 3.92362 15.5844 3.92362 15.5538V14.9965H5.54782V15.5538ZM18.6997 15.5538C18.6997 15.5844 18.6751 15.6091 18.6446 15.6091H17.1306C17.1001 15.6091 17.0757 15.5844 17.0757 15.5538V14.9965H18.6999L18.6997 15.5538ZM20.4267 14.0906H2.19649C1.70598 14.0895 1.28075 13.7496 1.17076 13.27H21.4524C21.3423 13.7496 20.9173 14.0895 20.4267 14.0906Z" fill="#757575" stroke="#757575" stroke-width="0.2"/>
</svg>
