<?xml version="1.0" encoding="utf-8"?>
<!-- Generator: Adobe Illustrator 24.0.2, SVG Export Plug-In . SVG Version: 6.00 Build 0)  -->
<svg version="1.1" id="Слой_1" xmlns="http://www.w3.org/2000/svg" xmlns:xlink="http://www.w3.org/1999/xlink" x="0px" y="0px"
	 viewBox="0 0 20 20" style="enable-background:new 0 0 20 20;" xml:space="preserve">
<style type="text/css">
	.st0{fill-rule:evenodd;clip-rule:evenodd;fill:#FFFFFF;}
</style>
<path class="st0" d="M3,20c-1.7,0-3-1.3-3-3V9.3c0-0.9,0.4-1.7,1-2.2l7-6.3c1.1-1,2.9-1,4,0l7,6.3c0.6,0.6,1,1.4,1,2.2V17
	c0,1.7-1.3,3-3,3H3z M18.5,9.3V17c0,0.8-0.7,1.5-1.5,1.5h-3V13c0-1.7-1.3-3-3-3H9c-1.7,0-3,1.3-3,3v5.5H3c-0.8,0-1.5-0.7-1.5-1.5
	V9.3c0-0.4,0.2-0.8,0.5-1.1l7-6.3c0.6-0.5,1.4-0.5,2,0l7,6.3C18.3,8.5,18.5,8.9,18.5,9.3z M7.5,18.5V13c0-0.8,0.7-1.5,1.5-1.5h2
	c0.8,0,1.5,0.7,1.5,1.5v5.5H7.5z"/>
</svg>
